<svg id="Слой_1" data-name="Слой 1" xmlns="http://www.w3.org/2000/svg" viewBox="0 0 83.63 120.68"><defs><style>.cls-1{fill:#fff;}</style></defs><path class="cls-1" d="M297.86,107.85l-24,24c-1,1-.93,2.09.22,3.24a1,1,0,0,0,.84.38l19.15-2.71a23.07,23.07,0,0,1,20.52,6.94q7.15,7.15,6.33,18a27.66,27.66,0,0,1-8.07,18.1L279,209.67l-18.86-18.86,22.4-22.4q1.51-1.5-.3-3.32a.83.83,0,0,0-.75-.3l-17.65,2.72q-10.34,1.58-19.31-7.39-7.39-7.4-7.13-18.6a26.16,26.16,0,0,1,7.66-18.59L279,89Z" transform="translate(-237.4 -88.99)"/></svg>